<svg xmlns="http://www.w3.org/2000/svg" width="62" height="62" viewBox="0 0 62 62"><g fill="none" fill-rule="evenodd"><path fill="#00A650" fill-rule="nonzero" d="M18.396 32.033a1.111 1.111 0 01-.313-.723c0-.207.105-.517.313-.723l1.46-1.447a1.016 1.016 0 011.461 0l.105.103 5.738 6.097a.507.507 0 00.73 0l13.98-14.363h.104a1.013 1.013 0 011.46 0l1.461 1.446a.992.992 0 010 1.447L28.203 41.023c-.209.207-.417.31-.73.31s-.522-.103-.73-.31l-8.138-8.68-.209-.31z"/><circle cx="31" cy="31" r="29.1" stroke="#00A650" stroke-width="3.8"/></g></svg>